Coordinates
version=1
nRows=4
nColumns=114
inDegrees=yes

Units are S.I. units (second, meters, Newtons, ...)
If the header above contains a line with 'inDegrees', this indicates whether rotational values are in degrees (yes) or radians (no).

endheader 
time	pelvis_tilt	pelvis_list	pelvis_rotation	pelvis_tx	pelvis_ty	pelvis_tz	hip_flexion_l	hip_adduction_l	hip_rotation_l	hip_flexion_r	hip_adduction_r	hip_rotation_r	knee_angle_l	knee_angle_r	ankle_angle_l	ankle_angle_r	subtalar_angle_l	subtalar_angle_r	mtp_angle_l	mtp_angle_r	lumbar_extension	lumbar_bending	lumbar_rotation	arm_flex_l	arm_add_l	arm_rot_l	arm_flex_r	arm_add_r	arm_rot_r	elbow_flex_l	elbow_flex_r	pro_sup_l	pro_sup_r	addbrev_l/activation	addlong_l/activation	addmagDist_l/activation	addmagIsch_l/activation	addmagMid_l/activation	addmagProx_l/activation	bflh_l/activation	bfsh_l/activation	edl_l/activation	ehl_l/activation	fdl_l/activation	fhl_l/activation	gaslat_l/activation	gasmed_l/activation	glmax1_l/activation	glmax2_l/activation	glmax3_l/activation	glmed1_l/activation	glmed2_l/activation	glmed3_l/activation	glmin1_l/activation	glmin2_l/activation	glmin3_l/activation	grac_l/activation	iliacus_l/activation	perbrev_l/activation	perlong_l/activation	piri_l/activation	psoas_l/activation	recfem_l/activation	sart_l/activation	semimem_l/activation	semiten_l/activation	soleus_l/activation	tfl_l/activation	tibant_l/activation	tibpost_l/activation	vasint_l/activation	vaslat_l/activation	vasmed_l/activation	addbrev_r/activation	addlong_r/activation	addmagDist_r/activation	addmagIsch_r/activation	addmagMid_r/activation	addmagProx_r/activation	bflh_r/activation	bfsh_r/activation	edl_r/activation	ehl_r/activation	fdl_r/activation	fhl_r/activation	gaslat_r/activation	gasmed_r/activation	glmax1_r/activation	glmax2_r/activation	glmax3_r/activation	glmed1_r/activation	glmed2_r/activation	glmed3_r/activation	glmin1_r/activation	glmin2_r/activation	glmin3_r/activation	grac_r/activation	iliacus_r/activation	perbrev_r/activation	perlong_r/activation	piri_r/activation	psoas_r/activation	recfem_r/activation	sart_r/activation	semimem_r/activation	semiten_r/activation	soleus_r/activation	tfl_r/activation	tibant_r/activation	tibpost_r/activation	vasint_r/activation	vaslat_r/activation	vasmed_r/activation	
          0.57000000	         -3.16752848	         -1.65269951	         -3.30234747	          1.19015104	          0.94231066	         -0.26665465	         -1.89306900	          2.04579458	        -11.06839795	         18.05567307	         -1.37576823	        -15.18993466	          1.44234647	         16.84810010	          4.60889985	          9.02989041	         14.91211047	         -8.33772888	        -17.64521126	         -0.27866875	         -5.77678720	         -4.04149292	         -5.27205928	         10.68751622	        -10.42528231	         16.98237413	          3.34339523	         -7.30812795	         22.64295887	         25.85482216	         23.57395264	         70.56553752	         80.02606293	          0.09670337	          0.06365225	          0.09646375	          0.10894227	          0.10230307	          0.13015630	          0.12990580	          0.31949693	          0.18167543	          0.26077209	          0.29794509	          0.36176079	          0.36807070	          0.28921171	          0.15979805	          0.12823094	          0.06793908	          0.58307055	          0.33649850	          0.24413428	          0.40606584	          0.36974721	          0.29611844	          0.16837293	          0.34559467	          0.07146341	          0.03835236	          0.21299036	          0.26220435	          0.13629476	          0.31900175	          0.18823976	          0.19927255	          0.07768199	          0.40118093	          0.49720957	          0.49978123	          0.08693508	          0.03093876	          0.06022409	          0.17050544	          0.19272232	          0.05811365	          0.03783215	          0.08977463	          0.27342581	          0.10051833	          0.29638553	          0.40443413	          0.33138375	          0.20643533	          0.15602358	          0.05092930	          0.04909557	          0.06890164	          0.03266820	          0.02876819	          0.06601990	          0.11172474	          0.25661385	          0.11651255	          0.19745597	          0.30035012	          0.14076529	          0.58138325	          0.24188274	          0.20486319	          0.56941886	          0.71632963	          0.68422732	          0.52892510	          0.08318252	          0.04350510	          0.01485334	          0.36638959	          0.62881085	          0.13842562	          0.13456813	          0.07647447	          0.11021739	
          0.58000000	         -3.19635327	         -1.52086305	         -3.18876419	          1.19403300	          0.94175843	         -0.26681824	         -2.08822100	          2.17825041	        -10.93676171	         18.59083514	         -1.30717484	        -15.54611534	          1.51421053	         15.27775508	          4.72668058	          8.80921781	         15.01761238	         -6.97002109	        -17.92959197	         -0.27256094	         -5.85980659	         -4.15912015	         -5.45389350	         10.83028496	        -10.51331667	         16.99695936	          3.31620615	         -7.22453632	         22.57625060	         26.17580276	         23.53479138	         70.62712087	         79.95298469	          0.09500680	          0.06122574	          0.10151499	          0.12042417	          0.10437297	          0.12732577	          0.13548514	          0.32011246	          0.16922627	          0.25945989	          0.30597164	          0.37841536	          0.37012278	          0.28164651	          0.16286924	          0.13711406	          0.07313250	          0.59106227	          0.33132930	          0.23511148	          0.40622671	          0.37746892	          0.28352010	          0.16992388	          0.32825179	          0.06970446	          0.03197270	          0.20029143	          0.24310557	          0.11874726	          0.30991274	          0.18570996	          0.20466601	          0.07874918	          0.40069094	          0.50363140	          0.52391301	          0.08315839	          0.02956067	          0.05722563	          0.17027670	          0.17887383	          0.05210164	          0.03285870	          0.08448731	          0.31566323	          0.08487538	          0.28161072	          0.39828654	          0.32534255	          0.20767479	          0.16113743	          0.04402051	          0.05372967	          0.06260863	          0.02853763	          0.02575971	          0.05595302	          0.10034601	          0.28071897	          0.10542851	          0.18195070	          0.29777110	          0.12940501	          0.60393588	          0.23653132	          0.19931560	          0.54708456	          0.76979768	          0.62534213	          0.58556378	          0.09602476	          0.03761430	          0.01343193	          0.35953637	          0.60901400	          0.14451028	          0.15608462	          0.08823157	          0.12377924	
          0.59000000	         -3.20951233	         -1.39876510	         -3.10045666	          1.19792877	          0.94119075	         -0.26695549	         -2.28978015	          2.29833946	        -10.82203476	         19.12299660	         -1.24411401	        -15.86927477	          1.62642173	         13.85585117	          4.88262780	          8.54466198	         15.11564748	         -5.63314865	        -18.21774264	         -0.26731054	         -5.96264289	         -4.24869001	         -5.61937909	         10.95299711	        -10.58020012	         17.01579264	          3.30288410	         -7.14601024	         22.51558529	         26.47850098	         23.48157535	         70.68959991	         79.88417622	          0.09710973	          0.06112505	          0.10557535	          0.12406501	          0.10757224	          0.12698272	          0.13045283	          0.31741549	          0.15315871	          0.25848877	          0.31622433	          0.40083211	          0.37255606	          0.27077033	          0.15834692	          0.13672455	          0.07579776	          0.58414384	          0.31739456	          0.21922907	          0.40556785	          0.38333703	          0.27671155	          0.17146958	          0.32856215	          0.06459827	          0.02818151	          0.19013789	          0.23853721	          0.11710014	          0.30468521	          0.16601153	          0.21087016	          0.08191629	          0.40546009	          0.52011001	          0.55619147	          0.08485074	          0.02989989	          0.05798782	          0.16691819	          0.18035420	          0.05139259	          0.02956970	          0.08378681	          0.29377078	          0.10125563	          0.28358277	          0.39204680	          0.32164110	          0.20837272	          0.16582040	          0.05452895	          0.05356321	          0.06070373	          0.02643032	          0.02397464	          0.06184122	          0.09868151	          0.25381773	          0.10336930	          0.18194294	          0.29134589	          0.12370433	          0.59221017	          0.23359421	          0.19484992	          0.54060433	          0.72785085	          0.55816849	          0.56081897	          0.08093128	          0.03333462	          0.01151041	          0.34372199	          0.59060005	          0.14970061	          0.14363032	          0.08529305	          0.11846298	
          0.60000000	         -3.20757681	         -1.29149707	         -3.03899349	          1.20184467	          0.94061568	         -0.26708460	         -2.49315610	          2.39991123	        -10.72870000	         19.65246268	         -1.18259599	        -16.16544185	          1.78421186	         12.57909005	          5.07277765	          8.24747511	         15.21665171	         -4.34410213	        -18.51349063	         -0.26249506	         -6.08354805	         -4.29896240	         -5.76864314	         11.05275074	        -10.62589492	         17.03818675	          3.30731502	         -7.07432763	         22.46318618	         26.76363606	         23.41688268	         70.75267300	         79.82052243	          0.10254311	          0.06965868	          0.10635705	          0.12222262	          0.11025244	          0.12928734	          0.11922768	          0.31417402	          0.13668883	          0.25685838	          0.32607546	          0.42207117	          0.37726461	          0.26191596	          0.15065882	          0.12835643	          0.07271617	          0.57083238	          0.30129629	          0.20504466	          0.40451483	          0.38651955	          0.26589029	          0.17299415	          0.33898270	          0.05742082	          0.02350504	          0.18207514	          0.24722959	          0.14621547	          0.30409519	          0.14141735	          0.19292168	          0.08599337	          0.41300893	          0.53434062	          0.58461690	          0.08580716	          0.02998146	          0.05922954	          0.16511114	          0.16364805	          0.05330832	          0.02868008	          0.08497622	          0.29464392	          0.08673284	          0.28458575	          0.38858248	          0.31767205	          0.20869833	          0.16834457	          0.06179291	          0.05442142	          0.06283790	          0.02662047	          0.02380508	          0.05925382	          0.09572830	          0.26692739	          0.09905119	          0.17213796	          0.28536922	          0.12313113	          0.55671971	          0.23197877	          0.19577391	          0.51060272	          0.70497056	          0.48742659	          0.55264456	          0.09538794	          0.03298959	          0.01741465	          0.32801567	          0.57764580	          0.15251768	          0.14455253	          0.07801435	          0.11512323	
